<svg id="Panda" xmlns="http://www.w3.org/2000/svg" viewBox="0 0 1830.38 1692.97"><defs><style>.cls-1{fill:#fff;}.cls-2{fill:#18eafa;}.cls-3{fill:#ff0dff;}.cls-4,.cls-5{fill:#999;}.cls-4{stroke:#999;stroke-miterlimit:10;}</style></defs><title>Vector Graphic</title><g id="Base"><path id="Background" d="M1874,322.5s-10.17-1.33-29,6.17c0,0-63.17-197.84-303.75-179.42,0,0-78.58,221.81-178.58,284.38,0,0-150.8-44.61-368.17-1.11-217.37-43.5-368.17,1.11-368.17,1.11-100-62.57-178.58-284.38-178.58-284.38C207.17,130.83,144,328.67,144,328.67c-18.83-7.5-29-6.17-29-6.17C14.37,588.36,158.5,633,158.5,633v14.25c-12.5.5-10.75,8.25-10.75,8.25,13.5,25,129.5,19.63,129.5,19.63-16.37,25.25-17.08,38.37-17.08,38.37C280.83,714,282,716,282,716c-197.62,200.39-35.25,531.75-35.25,531.75,14.25-2.25,15.5-5.75,15.5-5.75,103.25,286,284.58,318.83,284.58,317.33V1531.5c5.84-4.67,71.55,11.13,71.55,11.13,44,54.95,119.62,154.87,124.29,154.87s11.83-9,11.83-9c106,148.48,214.68,153.46,240,152.42,25.32,1,134-3.94,240-152.42,0,0,7.17,9,11.83,9s80.25-99.92,124.3-154.87c0,0,65.7-15.8,71.54-11.13v27.83c0,1.5,181.33-31.33,284.58-317.33,0,0,1.25,3.5,15.5,5.75,0,0,162.37-331.36-35.25-531.75,0,0,1.17-2,21.83-2.5,0,0-.7-13.12-17.08-38.37,0,0,116,5.37,129.5-19.63,0,0,1.75-7.75-10.75-8.25V633S1974.63,588.36,1874,322.5Z" transform="translate(-79.31 -148.04)"/><path id="Forground" class="cls-1" d="M606.67,1395.67s-146-68-170-302.67c0,0-8-11.33-18,84.67,0,0-17.34-28-10-282,0,0-14,4-24.67,14,0,0-5.33-327.67,332.67-157.5,0,0-61.09-94.25-173.54-110,0,0,220.87-217.13,449.54-149.13,0,0,210.33-70,450.83,148.5,0,0-111.5,12.17-173,110.83,0,0,318.17-178.66,331.17,157.34,0,0-20.67-15.17-24.92-17,0,0,11.79,193.45-7.81,286.25,0,0,0-38.05-16.81-85.13,0,0-13.8,207.92-171.46,300.08l18.66-49.16s-81.16-35.34-111.25-55.5c0,0,.67,122.33-40.95,154.33,0,0-5.13-33.67-23.8-60.75,0,0,38.92,290.5-231.2,333.38,0,0-244.3-16-232.71-330.55,0,0-11.67,10.67-20.67,57.42,0,0-26.75-6.5-42-153.75l-107,55.75Z" transform="translate(-79.31 -148.04)"/></g><g id="Features"><g id="Mouth"><path id="Background-2" data-name="Background" d="M1242.48,1296.89l-.71-4.75-1.33-5.18-1.92-5.15-1.88-3.92-1.81-3.18-1.88-2.9-2.25-3.09-2-2.48-3.58-4-4.27-4.11-2.45-2.14-2.68-2.16-3.21-2.4-3.18-2.18-2.28-1.45-2.88-1.7-1.51-.81.87,3,1,4,.77,3.62.73,4.51.47,4.58.15,5.9-.32,5.08-.63,4.34-1.08,4.6-1.16,3.58-1.67,4-2.72,5s-2.38,3.55-2.56,3.79-2.26,2.85-2.26,2.85l-3.72,4-3.13,2.87-3.94,3.15-4.14,2.87-4.45,2.68-4.58,2.43-3.85,1.82-4.35,1.84-4.06,1.54-3.72,1.28-1.5.48-4.11,1.23-9.3,2.35-5.66,1.15-7,1.16-5.58.71-4.46.43-2.65.11h-44.42l-8-1.13-6.43-1.13-4.69-.94-4.5-1-5.6-1.36-5.38-1.43-8.95-2.64-7.5-2.44-7.17-2.55-5.65-2.15-3.55-1.43-3.76-1.57-2.62-1.15-3.08-1.41-3.08,1.41-2.62,1.15-3.76,1.57-3.55,1.43-5.65,2.15-7.17,2.55-7.49,2.44-9,2.64-5.38,1.43-5.6,1.36-4.5,1-4.69.94L924,1335.2l-8,1.13H871.58l-2.65-.11-4.46-.43-5.58-.71-7-1.16-5.66-1.15-9.3-2.35-4.11-1.23-1.5-.48-3.72-1.28-4.06-1.54-4.35-1.84-3.85-1.82-4.58-2.43-4.45-2.68-4.14-2.87-3.94-3.15-3.13-2.87-3.72-4s-2.08-2.61-2.26-2.85-2.56-3.79-2.56-3.79l-2.72-5-1.67-4-1.16-3.58-1.08-4.6-.63-4.34-.32-5.08.15-5.9.47-4.58.73-4.51.77-3.62,1-4,.87-3-1.5.81-2.89,1.7-2.28,1.45-3.17,2.18-3.22,2.4-2.67,2.16-2.46,2.14-4.27,4.11-3.58,4-2,2.48-2.25,3.09-1.88,2.9-1.81,3.18-1.88,3.92-1.92,5.15-1.33,5.18-.71,4.75-.23,6,.3,4.51,1,5.9,1.29,4.81,1.64,4.63,2.42,5.45,3.22,5.92,3.05,4.8,4.94,6.73,7.53,8.75,7.63,7.7,7,6.39,3.33,2.83,6.95,43.91,0,.27h0c0,.2.08.49.14.86l.08.52,0-.3.23,1.46-.05-.34.12.77c0,.23.07.47.11.72l.36,2.25-.06-.37c.07.43.14.89.22,1.38l0-.2.16,1-.06-.37c.12.74.24,1.54.38,2.4l.1.65-.05-.32c.09.54.18,1.11.27,1.7l.23,1.43-.12-.73c.28,1.73.58,3.67.92,5.82l-.05-.29.42,2.64-.05-.33c.09.54.17,1.08.26,1.65l0-.31.16,1,0-.27c0,.2.06.41.1.61l.08.55-.06-.37c.09.53.17,1.06.26,1.61l0-.23.09.57,0-.2c.13.81.26,1.64.4,2.5,9.92,62.72,54,152,54,152,48,57.33,141.16,64,141.16,64s93.16-6.67,141.16-64c0,0,44.09-89.28,54-152,.14-.86.27-1.69.4-2.5l0,.22.1-.62a2,2,0,0,1,0,.26c.09-.55.17-1.08.26-1.61,0,.16-.05.31-.08.46l.15-1c0-.1,0-.2,0-.3l0,.13.12-.76,0,.2c.09-.57.17-1.11.26-1.65l0,.12.14-.85c0-.1,0-.19,0-.29l.18-1.12,0,.12c.07-.41.13-.83.19-1.23l0,.21.21-1.32c0-.29.09-.6.14-.88l0,.16.15-.91v0l0-.15.46-2.94c-.11.67-.21,1.35-.32,2q.29-1.84.54-3.42l.2-1.26v0h0l.2-1.3c.1-.65.2-1.25.29-1.8l0-.23,0,.14c0-.15,0-.29.07-.44l.1-.62,0,.24c0-.22.07-.44.1-.64l.3-1.88.08-.53,0,.12.13-.81,0,.19,0-.26.14-.89,0-.17v.07l0-.16v.06l0-.08,6.93-43.83,3.33-2.83,7-6.39,7.64-7.7,7.52-8.75,4.94-6.73,3-4.8,3.22-5.92,2.42-5.45,1.64-4.63,1.29-4.81,1-5.9.3-4.51ZM793.39,1416l0,.24Zm.66,4.18c0,.26.09.53.13.82C794.14,1420.68,794.09,1420.41,794.05,1420.14Zm397.69-.8c.08-.51.15-1,.22-1.39C1191.89,1418.38,1191.81,1418.84,1191.74,1419.34Zm.55-3.49,0-.23Z" transform="translate(-79.31 -148.04)"/><g id="Teeth"><path id="Upper" class="cls-1" d="M996.28,1359h-3.45C931,1392.67,814,1372,814,1372c8,44.33,38,75,38,75l26-59.67v17.34c10.67-5.34,114.83-7.67,114.83-7.67h3.45s104.17,2.33,114.84,7.67v-17.34l26,59.67s30-30.67,38-75C1175.12,1372,1058.12,1392.67,996.28,1359Z" transform="translate(-79.31 -148.04)"/><path id="Lower" class="cls-1" d="M1081.37,1492.83c-3.5-1-22.33,55-22.33,55l-5.5-16.5c-18.33,24.5-57.5,25.34-57.5,25.34h-3.21s-39.16-.84-57.5-25.34l-5.5,16.5s-18.83-56-22.33-55-19.17,31.5-19.17,42v29.84S888,1588.17,960,1609h68.87c72-20.83,71.67-44.33,71.67-44.33v-29.84C1100.54,1524.33,1084.87,1493.83,1081.37,1492.83Z" transform="translate(-79.31 -148.04)"/></g></g><g id="Nose"><path id="Nose-2" data-name="Nose" d="M992.83,1217.5s-33.83,3-98.83,3-12.34-79.5,98.83-79.5,167.17,79.5,100.67,79.5C1093.5,1220.5,1000.83,1219.67,992.83,1217.5Z" transform="translate(-79.31 -148.04)"/><path id="Upper_Nose" data-name="Upper Nose" d="M1150.46,1154.59s-52.84-70.36-155.33-72v0l-1.82,0-1.81,0v0c-102.49,1.63-155.33,72-155.33,72,54.48-38.6,143.4-43.5,157.14-44C1007.06,1111.09,1096,1116,1150.46,1154.59Z" transform="translate(-79.31 -148.04)"/></g><g id="Eyes"><g id="Left_Eye" data-name="Left Eye"><path d="M1086.5,942s-118,130,47,138c0,0,293.17,169.33,302.83-115.83l24.8,8.46V959s-35.52-94.37-131.83-57.54l-192.88,120.58h-22.09S1066.25,1017,1086.5,942Z" transform="translate(-79.31 -148.04)"/><path id="Eye" class="cls-2" d="M1183.64,1040.92h84.2s64.47-14.46,64.46-52.94c0,0,1-13.89-42-3.38C1252.87,993.23,1213.91,1011.82,1183.64,1040.92Z" transform="translate(-79.31 -148.04)"/></g><g id="Right_Eye" data-name="Right Eye"><path id="Background-3" data-name="Background" d="M608.75,1110.5s-38.5,3.08-46.62,112.63h0l-1.78-8.47-1.55-9.15-.89-6.26-.27-2.14-.25-2.08-.25-2.32-.24-2.26-.19-2-.62-8.07-.27-5.38-.09-2.32v-15.23l.08-1.91.08-1.69.29-4.56.35-4.12.34-3.17.64-4.92.61-3.92.43-2.38,1-4.74.9-3.83.42-1.58,1.25-4.41,1.32-4,1.81-4.86,1.83-4.25,1.45-3,2.76-5.09,2.86-4.54,2.11-3,2.82-3.56,1.07-1.22v-8.38l-.23-.37-.36-.62-.62-1.09-1.08-2-.79-1.55-.71-1.43-.59-1.23-1.1-2.35-.76-1.68-.9-2.07-1.52-3.66-.78-1.94-1.2-3.09L568,1047.1l-1.23-3.48-1.2-3.58-1.69-5.32-2.24-7.62-1.7-6.25-1.14-4.5-1.6-6.73-1.38-6.27-2.1-10.6-1.23-6.88-1.18-7.36-.76-5.09-.68-5-.2-1.51-1.24.42-1,.36-1.36.47-1.13.39L533,972.67h-5.5V958.5l1-2.5.82-1.84,1.44-3,.88-1.72,2.94-5.26,3.08-4.93,2.29-3.36,1.6-2.2L544,930.6l2.58-3.12,2.11-2.39,3.26-3.44,2.54-2.46,2.26-2.07,2.33-2,2.64-2.13,2.55-1.9,2.76-1.93,3.21-2,2.59-1.52,4.26-2.26,3.58-1.68,2.71-1.14,2.42-.93,2.76-1,3.36-1,4.58-1.18,6.34-1.21,3.72-.49,3.62-.34,5-.25h4.46l3.87.15,3.67.27,4,.43,4,.57,3.89.68,4.42.92,2.93.7,2.54.65,2.33.65,3.2,1,2.51.8h5.59l1.78-2.88,1.41-2.2,3.91-5.9,2-2.89,2.19-3.13,2.38-3.35,2-2.81,2.49-3.37,2.88-3.8,2.31-3,2.71-3.44,2.93-3.64,1.86-2.28,1.72-2.07,2-2.39,1.71-2,2.15-2.49,1.93-2.2,2.43-2.71,1.7-1.88,2.58-2.8,2.34-2.49,2-2.11,1.87-1.92,1.94-2,1.92-1.92,1.93-1.9,2.6-2.52,1.6-1.53,1.74-1.63,2.32-2.14,2.08-1.89,1.42-1.27,1.54-1.36,1.62-1.42,2.15-1.83,2.19-1.85,2.18-1.79,2.24-1.81,4.24-3.33,1.61-1.23,3.41-2.53,1.9-1.37,3.08-2.17,2.12-1.46,1.92-1.28,1.77-1.17,2.8-1.79,1.7-1.06,2.08-1.27,2.13-1.27,1.62-.94,2.5-1.41,1.28-.71,3-1.63,2.11-1.09,3-1.47,4.5-2.11S721.5,844.5,695.5,919c0,0,126.17,93.17,154.33,102.83,0,0,80.5,9.5,47.17-79.33,0,0,126,126-38.5,137.75C858.5,1080.25,683.83,1168,608.75,1110.5Z" transform="translate(-79.31 -148.04)"/><path id="Eye-2" data-name="Eye" class="cls-3" d="M803,1040.75H718.8s-64.47-14.45-64.47-52.94c0,0-1-13.89,42-3.38C733.77,993.07,772.72,1011.65,803,1040.75Z" transform="translate(-79.31 -148.04)"/></g></g><path id="Forhead" d="M1091,828.63s-102.5,190-243.5,2.7C847.5,831.33,973.5,966.75,1091,828.63Z" transform="translate(-79.31 -148.04)"/></g><g id="Highlights"><g id="Right_Side" data-name="Right Side"><path id="Cheek" class="cls-4" d="M479.15,718l-5.42,2.64-4.6,2.61-5.27,3.31-7.31,5.18L449,737.94,437.57,749.2,426.43,763,410.64,789.6l-5.77,12.85L399.77,816l-4.15,13.27-3.9,15.29s-3.19,16-3.27,16.52-2.19,15-2.19,15L384,896.83v12.84l5.41-4.42,2.85-1.93,4.25-2.49,3.2-1.62,3.89-1.72,5.07-1.82L407.28,957l-.35,31.17.5,73.83,1.2,35,1,17.46.77,10.84,1.3,14.53L413.1,1152l1.38,9.19,2.45,11.54,1.43,4.28.25.53s5.58-47.13,8.58-61.66,5-18.51,5-18.51l1.35-2.77.78-1.09.95-.8.51-.15.28,0,.29.1.35.29.13,1.27.95,8.54.4,3.3.74,5.64.5,3.67.71,4.84.7,4.53.74,4.57.85,4.91,1.72,9.28,1.56,7.69,1.3,6,1.13,5,1.61,6.66,2.62,10.07,1.48,5.35,2.36,8,2.82,9,1.89,5.7,2.61,7.44,1,2.82,1.72,4.6,2.37,6.08,2.5,6.13,1.21,2.87,3.43,7.82,3,6.57L482,1258l2.76,5.46,5,9.31,5,8.8,6.2,10.22,9.76,14.69,6.31,8.73,5,6.48,5.42,6.73,7.68,9,10.07,10.83,6.06,6.06,4.55,4.32,4.07,3.72,5.24,4.61,5,4.17,4.64,3.7,4.65,3.55,4.37,3.18,5.53,3.83,4.39,2.86,3.81,2.35,4.06,2.37,4.85,2.57.18.09.08-.09-.52-1.56-16.35-49,107-55.75s-42.58,13.92-111.08-24.92l19,24.92s-149.17-43.75-86.92-286.5l9.5,21.88h6v-21.88h5.5l24.5,52.5v8s-36.5,73-1.12,159.88c0,0-23.21-93.88,18-140.5v-8.38s-20.8-32.75-30.46-107.33L533,972.67h-5.5V958.5s32.67-89.25,129.58-57.62h5.59S716,811.5,792.25,777c0,0-84.58,17.25-140.75,96.63l-21.83-3.13h-44S527.17,887,494.83,937h-10S450,895,472.5,826.5l-24.92,21.75h-5.33s-17.68-79.79,37.2-130.52" transform="translate(-79.31 -148.04)"/><path id="Eyebrow" class="cls-4" d="M707,899.5,852.5,1000s67.75,18.25,44.5-57.5l2.62,7.48,1.15,3.72,2.38,9.36.81,4.31.81,6.21.29,4.55v5.31l-.54,4.67-.75,3.94-1.62,5.24-1.95,4.18-2.62,4.07-4.28,4.71-4.9,3.76-7.67,3.88-6.79,2.17-6.56,1.28-5.33.58-8.6.16-3.62-.25-11.16-5.22-20.49-12.16-25.93-17-11-7.46-20.76-14.37-10-7-13-9.23-18-12.95-13.73-10L695.5,919l3-8.18,2-4.78,2-4.65,1.75-3.87Z" transform="translate(-79.31 -148.04)"/><path id="Lower_Cheek" data-name="Lower Cheek" class="cls-4" d="M696.75,1289.25l.56,5.33L698,1301l1.14,9.66,1,7.88,1,7.33,1.43,9.89.85,5.51,1.15,7.07,1.13,6.53,1.52,8.22,1.87,9.29,2.3,10.29,2.55,10.17,1.15,4.18,2.38,8,1.56,4.77,2.1,5.82,2.2,5.48,1.38,3.13,3.06,6.1,3.66,5.87,2.17,2.76,2.55,2.54,1.22.89.53.32.85.38,1.7-8.28,1-4.55,1.4-5.66.85-3.21S718.5,1408.5,696.75,1289.25Z" transform="translate(-79.31 -148.04)"/><path id="Forhead-2" data-name="Forhead" class="cls-4" d="M716.67,752.17s-16.42-60-65.17-109.67c0,0-2-7,0-17.5,0,0,53.71-90.57,198.35-141.52l-6.94,1-7.47,1.27-9.31,1.79-7.82,1.67-6.79,1.58L805,492.45l-7.07,1.88-6.29,1.78L787,497.49l-5.73,1.77-12.6,4.17-16.76,6.12-12.36,4.95-15.59,6.74-20.8,9.87-16.23,8.39-14.61,8.06-6.64,3.83-5.31,3.14-8.07,4.88-7.62,4.76-7.91,5.08-12,8-12,8.37L598.43,596l-15.08,11.57-12.7,10.25-13.81,11.76-9,8.06-4.75,4.49,6.33,1,8.34,1.57,8.21,1.86,8,2.12,5.69,1.7,6.36,2.09,5.06,1.81,8.36,3.28,8.76,3.83,9.4,4.58,6,3.19L633.83,675l7.85,5,7.38,5,7.87,5.76,8.35,6.58,6.77,5.71,8.89,8.07,6.78,6.61,7.44,7.78,6.44,7.22,6.6,8,5.36,7Z" transform="translate(-79.31 -148.04)"/></g><g id="Left_Side" data-name="Left Side"><path id="Forhead-3" data-name="Forhead" class="cls-4" d="M1270.5,752.33s35.17-87,66.5-113.16V628.38S1279.75,525,1125.37,485l9.42,1.17,10.34,1.51,13,2.26,17,3.52,5.44,1.27,21.74,5.75,22.24,7,21.88,8,21.94,9.16,21.86,10.27,22.58,11.84,21.8,12.63,22.33,14.2,21.7,15.06,22.1,16.66,21.94,17.89,20.83,18.28-20.45,3.94-16.83,4.72-15.94,5.58-11.88,4.9-13.55,6.43-8.39,4.46-5.75,3.28-8.25,5.08-8,5.34-8.44,6.16-7.2,5.73-6.25,5.36-5.72,5.26-8.69,8.71-7.57,8.42L1282,735.65l-5.67,7.87Z" transform="translate(-79.31 -148.04)"/><path id="Lower_Cheek-2" data-name="Lower Cheek" class="cls-5" d="M1241.72,1421.65s29.65-15.58,46.26-131.75c0-.24.07-.49.1-.73l-.46,17.82-.8,13.68-2.07,21.95-3.31,22.78-4.27,20.28-3.38,12.13-4.39,12.52-5.45,11.89-3.26,5.69-4.27,6.16-5.69,6.34-3.6,3.09-1.94-9.38-1.69-6.5Z" transform="translate(-79.31 -148.04)"/><path id="Cheek-2" data-name="Cheek" class="cls-4" d="M1600.87,894.77l-2.5-25.44-2.21-14.79-2.86-14.68-3.82-15.37-5.38-17-4.2-10.8-6.23-13.39-7.77-13.57-6.05-8.82-7.91-9.79-8.74-9-9.51-8.12-9.11-6.42-8.31-4.91-6.13-3.11-4.11-1.87s52.8,43.44,37.89,130.85l-27.54-22s19.62,84.7-13.63,110h-8.5S1430.5,871,1400,871h-43.62s-53.88-5-220.88,129c0,0-58.17,13.67-49-58l-2.62,11.16-1.76,11.34-.59,9.88.4,8.77,1.12,7,1.93,6.66,3,6.48,3.57,5.29,5.48,5.57,3.65,2.64,4.21,2.31,5,1.94,4.46,1h22.09l189.5-118.47,3.38-2.11,4.94-1.79,10.79-3.23,6-1.37,7.16-1.2,6.15-.94h8.84l11.4.91,8.34,1.63,8.82,2.71,8.42,3.64,10.46,6.13,6.21,4.61,4.53,3.88,5.48,5.35,4.2,4.65,4.92,6.14,4.29,6.1,3.53,5.65,4,7.19,3.41,7.48v13.59l-24.8-8.46-.69,13.54-.75,9.08-1.54,13.21-2.19,13.42-2.4,11.21-3.29,12.19-2.44,7.51-2.43,6.56-1.88,4.56-4.58,9.75-1.37,2.59s35.4-37,35.4-65.29H1453v21.75h8.13l7.12-21.75S1535,1218,1387,1286.83l13.67-22.33s-64.84,40.17-112.59,24.67l2.24,1.47,2.64,1.66,2.36,1.44,4.11,2.42,2.75,1.57,6.13,3.39,4,2.18,6.66,3.49,8.57,4.37,20.75,10.16,11.15,5.28,13.8,6.39,5.51,2.51,5.4,2.44,15.13,6.73-18.66,49.16,3.9-2.32,9.21-5.82,14.43-10.14,22.28-18.47,23.26-23.7,20.44-25.62,17-25.79,9.36-16.53,10.94-22,9.61-22.5,9.06-24.93,8-26.71,5.41-22,3.83-19,3.09-19.48,1.65-15.07,3.07,9.1,3,10,2.07,7.73,3.1,13.41,2.21,11.9,1.65,11.33,1,10,.63,11.65,3.77-21.58,1.6-12.18,2.42-24.5,1.37-19.73,2-55.52.17-39-.52-36.75-.85-30-2.11-47,6.36,3.9,5.8,4,5.55,3.93,7.21,5.22Z" transform="translate(-79.31 -148.04)"/></g><path id="Chin" class="cls-4" d="M774,1524.24s77.66,168,218.83,168,218.86-168,218.86-168l-2.92,9.94-3.83,11.54-6.65,17.14-6,13.26-11.76,21.6L1166,1619l-19,22.06-11.25,10.81-21.4,17.07-22.46,14.1-21.33,10.58-22.35,8.72-22,6.63-22.13,5-12,2.12-18.53-2.74-13.49-3.07-25.3-7.86L916,1694.74l-17-8.49-10.5-6-16.75-11.14-13.7-10.66-18-16.69-14.73-16.49-8.49-11-6.19-8.91-9.91-16.18-7.16-13.58-6.38-13.91-6.38-16.23-2.89-8.4-2.61-8.29Z" transform="translate(-79.31 -148.04)"/><path id="Mouth_Nose" data-name="Mouth &amp; Nose" class="cls-4" d="M1224.5,1445.78l-9-54.53s-3-5-7,0-23.13,65.58-23.13,65.58L1192,1418l2.36-15,2.24-16,2.77-15.67,10.37-9.22,11.25-11.9,8.85-11.28,6.27-10.72,2.93-6.88,1.63-5,1.42-6.67.64-7.24-.71-8.87-1.54-6.54-1.92-5.15-3.16-6.17-3.92-5.9-2.74-3.5-5-5.32-6.44-5.79-3.71-2.88-4.23-3-4.33-2.66-2.34-1.3.87,3,1,4,1.06,5.37.91,7.34.13,5.25-.22,4.48-.61,4.9-1.45,6.14-1.49,4.19-2.49,5.22-2.54,4.26-2.25,3.11-3.63,4.15-4.55,4.39-6.53,4.94-13.93,7.77-8.91,3.62-10.18,3.21-12.8,3-9.86,1.63-11.14,1h-44.42l-8-1.13-8.15-1.48-7.47-1.59-8.37-2.1-7.22-2-8.61-2.67-11.31-4-7.64-3-4.41-1.83-5.7-2.56-9.46,4.13-7,2.75-9.36,3.38-9.6,3.07-9.49,2.71-12.84,3.09-13.28,2.38-5.79.82-47.07-.11-10-1.14-4.2-.7-5.68-1.05-13.82-3.43L825,1326.46l-7.13-3-9.76-5.22L800.6,1313l-3.85-3.25-2.47-2.4-2-2.18-3.13-3.78-3.3-5.17-3.11-6.4-1.4-4-1.06-4.18-1-5.69-.32-5.08.15-5.9.47-4.58.73-4.51.77-3.62,1-4,.87-3-3.34,1.89-3.33,2.07-6.39,4.58-2.67,2.16-6.73,6.25-5.58,6.44-4.13,6-3.69,7.1-1.92,5.15-1.49,6.21-.55,3.72-.17,4.49.06,3.38.8,6.37,1.12,5,1.88,5.78,2.72,6.3,4.7,8.23,2.83,4.19,2.66,3.63,4.1,5,4.45,5.17,5.48,5.53,4.8,4.57,7.72,6.82L797.67,1443l2.62,13.83-22-65.66s-3.25-6.25-8.08,0-9.35,59.2-9.35,59.2l-1.44-23.63-.36-17.37.07-11.24.33-12.55-3.21,4.27-3.19,5.76-1.78,3.82s-90.07-121.1,32.51-236.43c0,0-59.75,38.83-154.08,17.75,0,0,94.83,21.75,228.83-100.5L874,1078.7l10.51-1.65,13.79-3.17,9.91-3.25,7.55-3.28,7.09-4,4.32-3.11,4-3.53,5.53-6.71,3.09-5.68,1.59-4.37,1.25-5.69.47-4.87-.11-5-.75-6.34s26.64,40.46-23.31,78.32l-8.22,3.34-14.44,6.9-17.11,10-10.13,7-11,8.76-6.77,6-8.1,8-7,8S787.5,1198.5,784,1217.75c0,0,45.25-46.5,87.5-52.25,0,0-134.5,85.25,0,128.5,0,0,91.91,6.25,121.33-15,0,0,29.84,19,120.5,16.67,0,0,143.67-33,1.67-129.67,0,0,35.75-1.75,94.25,56.75,0,0-24.67-45.24-58.79-68.16L1132.64,1136l-16.06-13-23.52-14.9L1071.68,1098s-49.09-21.16-26-79.9l.73-1.64-.59,5.24-.09,6.33.57,5.68,2.37,8.72,3.3,6.58,2.77,3.9,5.63,5.87,9.7,6.8s8.22,4,8.63,4.16,12.69,4.28,12.69,4.28l10.9,2.5,11,1.76,10,1.07,10.25.68s68.17,92,222.5,102.67c0,0-81.83,24.08-153.67-20.17,0,0,127.92,93,32.3,240.5l-4.08-8.32-3.17-5.62-3-4.76-1.05-1.55.83,8.31.49,7,.38,8,.24,11.09-.14,14.16-.35,9.41Z" transform="translate(-79.31 -148.04)"/><path id="Forhead-4" data-name="Forhead" class="cls-4" d="M833.25,815.5l14.25,15.83,4.22,4.2,7.61,6.9,8.33,6.84,6.75,5.1,8.67,6,5,3.21,5.55,3.34,6.48,3.62,6.53,3.35L915.5,878l7.13,2.87,4.06,1.47,3.42,1.15,3.22,1,2.93.85,5.17,1.36,4.33,1,4.45.88,3.42.57,1.49.22,2.78.38,3.32.37,4.32.35,5,.24,2.69.05h2.85l2.37-.06,2.32-.09,2.46-.15,2-.16,2.6-.25,2.2-.26,2.5-.34,2.25-.35,4.8-.88,3.34-.73,2.88-.71,3.55-1,2.51-.75,1.46-.47,2.64-.88,2.44-.88,1.78-.67,1.4-.55L1023,881l1.5-.63,2.66-1.17,4.05-1.91,3.6-1.82,3.74-2,4.4-2.57,3.62-2.27,3.17-2.09,2.08-1.44,3.08-2.21,2.34-1.75,2-1.54,1.81-1.44,4-3.3,4.38-3.83,2.76-2.52,3.82-3.65,2.39-2.38,2.32-2.38,2.06-2.16,1.29-1.39,3.14-3.46,2.71-3.09,1.13-1.32s34.67-37,66-134.3C1157,694.33,1026.83,880.67,833.25,815.5Z" transform="translate(-79.31 -148.04)"/></g><g id="Accents"><g id="Right_Side-2" data-name="Right Side"><path id="Upper_Cheek" data-name="Upper Cheek" class="cls-3" d="M811.52,478.14s-268.67,36.66-380,188h34s-193.67,144.66-157.33,432L332.35,1079s28.92,202.38,126.38,347.77c0,0-117.38-97.69-146.13-291.81l-23.25,41.25s-96.44-298.66,97.84-482H365S455.11,502.35,811.52,478.14Z" transform="translate(-79.31 -148.04)"/><path id="Inner_Ear" data-name="Inner Ear" class="cls-3" d="M431,535l30.25-21.75s-128.92-50.25-156-181C305.25,332.25,300.33,483.67,431,535Z" transform="translate(-79.31 -148.04)"/><path id="Outer_Ear" data-name="Outer Ear" class="cls-3" d="M255,619.92s-114.79-38.71-88.06-184.48h32.94S198.5,344.5,265.75,265c0,0-73.24,30.17-87.92,126.42H150.38S90,600.33,255,619.92Z" transform="translate(-79.31 -148.04)"/><path id="Lower_Cheek-3" data-name="Lower Cheek" class="cls-3" d="M916,1743.63s-129.33-54.3-173.5-256.13l-11.25,49.25S665.33,1495,665.5,1333.33c0,0-18,168.83,77,258.92L744,1540S786,1716.25,916,1743.63Z" transform="translate(-79.31 -148.04)"/><path id="Outer_Eye" data-name="Outer Eye" class="cls-3" d="M603.75,958.88s11.5,87,58.88,108.75C662.63,1067.63,598.83,1062.08,603.75,958.88Z" transform="translate(-79.31 -148.04)"/><path id="Lower_Eye" data-name="Lower Eye" class="cls-3" d="M673.5,1105.67s42,2.29,118.67-39.27C792.17,1066.4,743.5,1119.33,673.5,1105.67Z" transform="translate(-79.31 -148.04)"/><path id="Inner_Eye_1" data-name="Inner Eye 1" class="cls-3" d="M762.17,1058.33s-88-.16-104.84-14.16C657.33,1044.17,679.83,1082.67,762.17,1058.33Z" transform="translate(-79.31 -148.04)"/><path id="Inner_Eye_2" data-name="Inner Eye 2" class="cls-3" d="M640.67,1074.5s27.33,15.83,76.83,8.17C717.5,1082.67,674.83,1105.17,640.67,1074.5Z" transform="translate(-79.31 -148.04)"/></g><g id="Left_Side-2" data-name="Left Side"><path id="Upper_Cheek-2" data-name="Upper Cheek" class="cls-2" d="M1175.12,478.3s268.66,36.67,380,188h-34s193.66,144.67,157.33,432l-24.17-19.16s-28.91,202.37-126.37,347.77c0,0,117.37-97.69,146.12-291.81l23.25,41.25s96.45-298.66-97.83-482h22.17S1531.53,502.52,1175.12,478.3Z" transform="translate(-79.31 -148.04)"/><path id="Inner_Ear-2" data-name="Inner Ear" class="cls-2" d="M1555.64,535.17l-30.25-21.75s128.91-50.25,156-181C1681.39,332.42,1686.3,483.83,1555.64,535.17Z" transform="translate(-79.31 -148.04)"/><path id="Outer_Ear-2" data-name="Outer Ear" class="cls-2" d="M1731.64,620.08s114.79-38.71,88.06-184.48h-32.94s1.38-90.93-65.87-170.43c0,0,73.24,30.17,87.91,126.41h27.46S1896.64,600.5,1731.64,620.08Z" transform="translate(-79.31 -148.04)"/><path id="Lower_Cheek-4" data-name="Lower Cheek" class="cls-2" d="M1070.64,1743.79s129.33-54.29,173.5-256.12l11.25,49.25s65.91-41.75,65.75-203.42c0,0,17.94,168.82-77,258.92l-1.5-52.25S1200.64,1716.42,1070.64,1743.79Z" transform="translate(-79.31 -148.04)"/><path id="Outer_Eye-2" data-name="Outer Eye" class="cls-2" d="M1382.89,959s-11.5,87-58.88,108.75C1324,1067.79,1387.8,1062.25,1382.89,959Z" transform="translate(-79.31 -148.04)"/><path id="Lower_Eye-2" data-name="Lower Eye" class="cls-2" d="M1313.14,1105.83s-42,2.3-118.67-39.27C1194.47,1066.56,1243.14,1119.5,1313.14,1105.83Z" transform="translate(-79.31 -148.04)"/><path id="Inner_Eye_1-2" data-name="Inner Eye 1" class="cls-2" d="M1224.47,1058.5s88-.17,104.83-14.17C1329.3,1044.33,1306.8,1082.83,1224.47,1058.5Z" transform="translate(-79.31 -148.04)"/><path id="Inner_Eye_2-2" data-name="Inner Eye 2" class="cls-2" d="M1346,1074.67s-27.33,15.83-76.83,8.16C1269.14,1082.83,1311.8,1105.33,1346,1074.67Z" transform="translate(-79.31 -148.04)"/></g></g></svg>